<svg width="20" height="12" viewBox="0 0 20 12" fill="none" xmlns="http://www.w3.org/2000/svg">
<path fill-rule="evenodd" clip-rule="evenodd" d="M2.93819 0H0.750187C0.125038 0 0 0.29425 0 0.618625C0 1.19806 0.741787 4.07175 3.45387 7.87243C5.26193 10.468 7.80931 11.875 10.1274 11.875C11.5182 11.875 11.6902 11.5625 11.6902 11.0242V9.06249C11.6902 8.43749 11.822 8.31274 12.2624 8.31274C12.5869 8.31274 13.1432 8.47499 14.4414 9.72643C15.9249 11.2096 16.1695 11.875 17.0039 11.875H19.1919C19.8171 11.875 20.1297 11.5625 19.9494 10.9458C19.7521 10.3312 19.0437 9.43937 18.1039 8.38231C17.5939 7.77974 16.8289 7.13087 16.5971 6.80637C16.2726 6.38925 16.3653 6.20381 16.5971 5.83306C16.5971 5.83306 19.2629 2.07869 19.541 0.804125C19.6801 0.340562 19.5411 0 18.8794 0H16.6914C16.1351 0 15.8786 0.29425 15.7394 0.618625C15.7394 0.618625 14.6268 3.33012 13.0506 5.09143C12.5406 5.60125 12.3087 5.7635 12.0306 5.7635C11.8915 5.7635 11.6902 5.60125 11.6902 5.13781V0.804125C11.6902 0.247875 11.5287 0 11.0651 0H7.62675C7.27912 0 7.07 0.258125 7.07 0.502812C7.07 1.03006 7.85812 1.15169 7.93937 2.63487V5.85625C7.93937 6.5625 7.81175 6.69056 7.53362 6.69056C6.79187 6.69056 4.98756 3.96694 3.91744 0.850437C3.70775 0.244688 3.49737 0 2.93819 0Z" fill="white"/>
</svg>
