<svg width="25" height="22" viewBox="0 0 25 22" fill="none" xmlns="http://www.w3.org/2000/svg">
<path d="M12.5 21.9902C11.6938 21.2915 10.7825 20.5646 9.81876 19.7913H9.80626C6.41251 17.0794 2.56627 14.0107 0.867527 10.3337C0.309425 9.16306 0.0136585 7.88942 1.42574e-05 6.59803C-0.00371298 4.82608 0.72349 3.12744 2.01728 1.88602C3.31108 0.644607 5.06225 -0.0347927 6.87501 0.00137342C8.35079 0.00365147 9.7948 0.420482 11.035 1.20221C11.58 1.54789 12.073 1.96602 12.5 2.44458C12.9294 1.9679 13.4226 1.55001 13.9662 1.20221C15.2059 0.420328 16.6496 0.00347281 18.125 0.00137342C19.9378 -0.0347927 21.6889 0.644607 22.9827 1.88602C24.2765 3.12744 25.0037 4.82608 25 6.59803C24.9872 7.89148 24.6914 9.1673 24.1325 10.3398C22.4337 14.0168 18.5887 17.0843 15.195 19.7913L15.1825 19.8011C14.2175 20.5695 13.3075 21.2964 12.5013 22L12.5 21.9902Z" fill="#30B856"/>
</svg>
