<svg width="16" height="16" viewBox="0 0 16 16" fill="none" xmlns="http://www.w3.org/2000/svg">
<path fill-rule="evenodd" clip-rule="evenodd" d="M15.2117 1.07107C14.2353 0.0946527 12.6512 0.0960337 11.6762 1.07107L8.14062 4.6066L4.60509 1.07107C3.62868 0.0946527 2.04459 0.0960337 1.06956 1.07107C0.0945234 2.0461 0.0931423 3.63019 1.06956 4.6066L4.60509 8.14214L1.06956 11.6777C0.0945234 12.6527 0.0931423 14.2368 1.06956 15.2132C2.04597 16.1896 3.63006 16.1882 4.60509 15.2132L8.14062 11.6777L11.6762 15.2132C12.6526 16.1896 14.2367 16.1882 15.2117 15.2132C16.1867 14.2382 16.1881 12.6541 15.2117 11.6777L11.6762 8.14214L15.2117 4.6066C16.1867 3.63157 16.1881 2.04748 15.2117 1.07107Z" fill="#216823"/>
</svg>
