<svg width="282" height="282" viewBox="0 0 282 282" fill="none" xmlns="http://www.w3.org/2000/svg">
<circle cx="140.999" cy="140.724" r="100" transform="rotate(-39.3132 140.999 140.724)" fill="url(#paint0_linear_1107_27740)"/>
<g clip-path="url(#clip0_1107_27740)">
<mask id="mask0_1107_27740" style="mask-type:luminance" maskUnits="userSpaceOnUse" x="75" y="73" width="131" height="131">
<path d="M75.998 73.7227H205.998V203.723H75.998V73.7227Z" fill="white"/>
</mask>
<g mask="url(#mask0_1107_27740)">
<path d="M202.189 203.723H79.8066C77.7033 203.723 75.998 202.017 75.998 199.914V128.312C75.998 127.18 76.5023 126.105 77.3745 125.382L138.566 74.6004C139.976 73.4302 142.02 73.4302 143.43 74.6004L204.622 125.382C205.494 126.105 205.998 127.18 205.998 128.312V199.914C205.998 202.017 204.293 203.723 202.189 203.723Z" fill="#FFCD14"/>
<path d="M204.622 125.382L143.43 74.6004C142.725 74.0152 141.861 73.7227 140.998 73.7227V203.723H202.189C204.293 203.723 205.998 202.017 205.998 199.914V128.313C205.998 127.18 205.494 126.105 204.622 125.382Z" fill="#FFB400"/>
<path d="M184.162 170.207H97.834C95.7306 170.207 94.0254 168.502 94.0254 166.398V92.7656C94.0254 90.6623 95.7306 88.957 97.834 88.957H184.162C186.265 88.957 187.971 90.6623 187.971 92.7656V166.398C187.971 168.502 186.265 170.207 184.162 170.207Z" fill="#DCF5FA"/>
<path d="M184.162 88.957H140.998V170.207H184.162C186.265 170.207 187.971 168.502 187.971 166.398V92.7656C187.971 90.6623 186.265 88.957 184.162 88.957Z" fill="#BEDCE6"/>
<path d="M139.91 135.326C136.899 135.326 133.648 132.072 133.648 126.814C133.648 121.773 136.949 118.76 140.14 118.76C143.464 118.76 145.811 121.868 145.937 126.366L145.933 127.235C145.755 131.739 143.122 135.326 139.91 135.326ZM164.261 120.157C164.254 120.131 164.247 120.104 164.239 120.078C162.357 113.844 158.148 108.74 152.387 105.706C146.626 102.672 140.034 102.09 133.824 104.066C127.941 105.939 123.046 109.977 120.042 115.436C117.036 120.896 116.246 127.191 117.816 133.162C119.176 138.334 122.113 142.795 126.309 146.064C130.349 149.211 135.381 151.022 140.478 151.163C140.502 151.164 140.526 151.164 140.549 151.164C141.919 151.164 143.048 150.073 143.086 148.695C143.125 147.294 142.02 146.126 140.618 146.087C132.225 145.855 124.868 140.009 122.727 131.871C120.15 122.069 125.701 111.982 135.365 108.905C140.268 107.344 145.472 107.804 150.02 110.199C154.557 112.588 157.874 116.603 159.365 121.506C160.309 125.076 159.999 128.393 158.331 132.588C157.873 133.739 156.454 136.416 153.172 136.416C152.554 136.416 152.077 136.029 151.847 135.798C151.3 135.248 150.976 134.438 150.98 133.63L151.011 127.271C151.016 127.097 151.022 126.923 151.022 126.747C151.022 126.637 151.017 126.529 151.015 126.42L151.073 114.699C151.08 113.296 149.949 112.154 148.547 112.147H148.534C147.138 112.147 146.002 113.276 145.995 114.674L145.991 115.549C144.332 114.354 142.342 113.682 140.14 113.682C134.453 113.682 128.57 118.594 128.57 126.814C128.57 134.307 133.657 140.404 139.91 140.404C142.56 140.404 144.964 139.316 146.854 137.48C147.222 138.177 147.69 138.82 148.248 139.38C149.604 140.743 151.353 141.494 153.172 141.494C158.394 141.494 161.698 137.863 163.05 134.465C165.131 129.23 165.505 124.817 164.261 120.157Z" fill="#696969"/>
<path d="M143.086 148.694C143.121 147.422 142.213 146.346 140.998 146.128V151.121C142.157 150.913 143.052 149.917 143.086 148.694Z" fill="#555555"/>
<path d="M164.238 120.076C162.357 113.843 158.148 108.738 152.386 105.704C148.813 103.822 144.921 102.885 140.998 102.915V107.996C144.106 107.967 147.19 108.707 150.019 110.197C154.556 112.586 157.874 116.601 159.365 121.504C160.309 125.074 159.999 128.391 158.33 132.586C157.873 133.737 156.454 136.414 153.172 136.414C152.553 136.414 152.076 136.027 151.846 135.797C151.299 135.246 150.975 134.436 150.979 133.628L151.01 127.269C151.015 127.095 151.021 126.921 151.021 126.746C151.021 126.635 151.017 126.527 151.015 126.418L151.073 114.696C151.08 113.294 149.948 112.152 148.546 112.145H148.533C147.137 112.145 146.002 113.274 145.994 114.672L145.99 115.547C144.55 114.509 142.86 113.867 140.998 113.715V118.831C143.861 119.321 145.822 122.265 145.937 126.364L145.932 127.233C145.775 131.216 143.697 134.48 140.998 135.182V140.338C143.217 140.083 145.226 139.059 146.853 137.478C147.221 138.175 147.689 138.818 148.247 139.378C149.603 140.741 151.352 141.492 153.172 141.492C158.393 141.492 161.698 137.861 163.049 134.463C165.131 129.228 165.504 124.815 164.261 120.155C164.254 120.129 164.246 120.102 164.238 120.076Z" fill="#555555"/>
<path d="M202.189 203.723H79.8066C77.7033 203.723 75.998 202.017 75.998 199.914V128.312C75.998 126.929 76.7481 125.655 77.9572 124.983C79.1663 124.311 80.6445 124.348 81.8191 125.079L140.998 161.912L200.177 125.079C201.351 124.348 202.829 124.311 204.039 124.983C205.248 125.655 205.998 126.929 205.998 128.312V199.914C205.998 202.017 204.293 203.723 202.189 203.723Z" fill="#FFF037"/>
<path d="M204.039 124.983C202.829 124.311 201.351 124.348 200.177 125.079L140.998 161.912V203.723H202.189C204.293 203.723 205.998 202.017 205.998 199.914V128.312C205.998 126.929 205.248 125.655 204.039 124.983Z" fill="#FFCD14"/>
</g>
</g>
<defs>
<linearGradient id="paint0_linear_1107_27740" x1="140.999" y1="40.7244" x2="140.999" y2="240.724" gradientUnits="userSpaceOnUse">
<stop stop-color="#9EFFB9"/>
<stop offset="1" stop-color="#30B856"/>
</linearGradient>
<clipPath id="clip0_1107_27740">
<rect width="130" height="130" fill="white" transform="translate(75.998 73.7227)"/>
</clipPath>
</defs>
</svg>
