<svg width="170" height="170" viewBox="0 0 170 170" fill="none" xmlns="http://www.w3.org/2000/svg">
<path opacity="0.1" d="M85 0C38.2832 0 0 38.2832 0 85C0 131.717 38.2832 170 85 170C131.717 170 170 131.717 170 85C170 38.2832 131.717 0 85 0Z" fill="url(#paint0_linear_1108_27792)"/>
<path d="M85 35C57.5195 35 35 57.5195 35 85C35 112.48 57.5195 135 85 135C112.48 135 135 112.48 135 85C135 57.5195 112.48 35 85 35Z" fill="url(#paint1_linear_1108_27792)"/>
<path d="M115.293 74.6875L85.0002 102.227L78.9648 107.734L57.0508 85.8203L65.3127 77.5584L79.3168 91.5625L85.0002 86.4063L107.442 66.0156L115.293 74.6875Z" fill="#FFF037"/>
<defs>
<linearGradient id="paint0_linear_1108_27792" x1="85" y1="0" x2="85" y2="170" gradientUnits="userSpaceOnUse">
<stop stop-color="#9EFFB9"/>
<stop offset="1" stop-color="#30B856"/>
</linearGradient>
<linearGradient id="paint1_linear_1108_27792" x1="85" y1="35" x2="85" y2="135" gradientUnits="userSpaceOnUse">
<stop stop-color="#9EFFB9"/>
<stop offset="1" stop-color="#30B856"/>
</linearGradient>
</defs>
</svg>
